<?xml version="1.0" encoding="UTF-8" standalone="no"?>
<svg
   width="16"
   height="16"
   viewBox="0 0 16 16"
   fill="#d2d2d2"
   version="1.1"
   id="svg4"
   sodipodi:docname="focus_near.svg"
   inkscape:version="1.3.2 (091e20e, 2023-11-25, custom)"
   xmlns:inkscape="http://www.inkscape.org/namespaces/inkscape"
   xmlns:sodipodi="http://sodipodi.sourceforge.net/DTD/sodipodi-0.dtd"
   xmlns="http://www.w3.org/2000/svg"
   xmlns:svg="http://www.w3.org/2000/svg"
   xmlns:rdf="http://www.w3.org/1999/02/22-rdf-syntax-ns#"
   xmlns:cc="http://creativecommons.org/ns#"
   xmlns:dc="http://purl.org/dc/elements/1.1/">
  <metadata
     id="metadata10">
    <rdf:RDF>
      <cc:Work
         rdf:about="">
        <dc:format>image/svg+xml</dc:format>
        <dc:type
           rdf:resource="http://purl.org/dc/dcmitype/StillImage" />
      </cc:Work>
    </rdf:RDF>
  </metadata>
  <defs
     id="defs8" />
  <sodipodi:namedview
     pagecolor="#ffffff"
     bordercolor="#666666"
     borderopacity="1"
     objecttolerance="10"
     gridtolerance="10"
     guidetolerance="10"
     inkscape:pageopacity="0"
     inkscape:pageshadow="2"
     inkscape:window-width="2400"
     inkscape:window-height="1271"
     id="namedview6"
     showgrid="false"
     inkscape:zoom="51.364237"
     inkscape:cx="9.3060859"
     inkscape:cy="10.581292"
     inkscape:window-x="-9"
     inkscape:window-y="-9"
     inkscape:window-maximized="1"
     inkscape:current-layer="svg4"
     inkscape:pagecheckerboard="0"
     inkscape:showpageshadow="2"
     inkscape:deskcolor="#d1d1d1" />
  <path
     id="path4294"
     d="M 8,3 6.75,4.5 5.4414062,3.441406 C 5.1541366,3.910633 5.001434,4.449822 5,5 5,6.656854 6.3431458,8 8,8 9.6568542,8 11,6.656854 11,5 11.000459,4.448867 10.849089,3.908259 10.5625,3.4375 L 9.25,4.5 Z"
     sodipodi:nodetypes="ccccscccc"
     style="fill:#1f1e1f;fill-opacity:1" />
  <rect
     id="rect30153"
     width="1"
     height="6"
     x="7.5"
     y="7"
     style="fill:#1f1e1f;fill-opacity:1" />
  <path
     d="M 8,13 C 9.9079423,13.03894 11.480532,10.999097 11.5,9.5 9.8018949,9.5255 8,11.259031 8,13 Z"
     id="path30813"
     sodipodi:nodetypes="ccc"
     style="fill:#1f1e1f;fill-opacity:1" />
  <path
     d="M 8,13 C 6.0920579,13.03894 4.519468,10.999097 4.5,9.5 6.1981049,9.5255 8,11.259031 8,13 Z"
     id="path30813-7"
     sodipodi:nodetypes="ccc"
     style="fill:#1f1e1f;fill-opacity:1" />
  <path
     d="M 0,3 V 0 H 3 V 1 H 1 v 2 z"
     id="path31542"
     sodipodi:nodetypes="ccccccc"
     style="fill:#1f1e1f;fill-opacity:1" />
  <path
     d="m 13,0 h 3 V 3 H 15 V 1 h -2 z"
     id="path31542-7"
     sodipodi:nodetypes="ccccccc"
     style="fill:#1f1e1f;fill-opacity:1" />
  <path
     d="m 16,13 v 3 h -3 v -1 h 2 v -2 z"
     id="path31542-71"
     sodipodi:nodetypes="ccccccc"
     style="fill:#1f1e1f;fill-opacity:1" />
  <path
     d="M 3,16 H 0 v -3 h 1 v 2 h 2 z"
     id="path31542-0"
     sodipodi:nodetypes="ccccccc"
     style="fill:#1f1e1f;fill-opacity:1" />
</svg>
